<svg width="246" height="55" viewBox="0 0 246 55" fill="none" xmlns="http://www.w3.org/2000/svg">
<rect width="246" height="55" fill="#1E1E1E"/>
<g clip-path="url(#clip0_0_1)">
<rect width="1440" height="4690" transform="translate(-86 -4085)" fill="#99FFE3"/>
<rect width="1440" height="739" transform="translate(-86 -134)" fill="#09131B"/>
<path d="M21.5209 23C23.5542 23.4333 25.1876 24.45 26.4209 26.05C27.6542 27.6167 28.2709 29.4167 28.2709 31.45C28.2709 34.3833 27.2376 36.7167 25.1709 38.45C23.1376 40.15 20.2876 41 16.6209 41H0.270899V5.9H16.0709C19.6376 5.9 22.4209 6.71666 24.4209 8.35C26.4542 9.98333 27.4709 12.2 27.4709 15C27.4709 17.0667 26.9209 18.7833 25.8209 20.15C24.7542 21.5167 23.3209 22.4667 21.5209 23ZM8.8209 20.1H14.4209C15.8209 20.1 16.8876 19.8 17.6209 19.2C18.3876 18.5667 18.7709 17.65 18.7709 16.45C18.7709 15.25 18.3876 14.3333 17.6209 13.7C16.8876 13.0667 15.8209 12.75 14.4209 12.75H8.8209V20.1ZM15.1209 34.1C16.5542 34.1 17.6542 33.7833 18.4209 33.15C19.2209 32.4833 19.6209 31.5333 19.6209 30.3C19.6209 29.0667 19.2042 28.1 18.3709 27.4C17.5709 26.7 16.4542 26.35 15.0209 26.35H8.8209V34.1H15.1209ZM59.5299 26.6C59.5299 27.4 59.4799 28.2333 59.3799 29.1H40.0299C40.1632 30.8333 40.7132 32.1667 41.6799 33.1C42.6799 34 43.8966 34.45 45.3299 34.45C47.4632 34.45 48.9466 33.55 49.7799 31.75H58.8799C58.4132 33.5833 57.5632 35.2333 56.3299 36.7C55.1299 38.1667 53.6132 39.3167 51.7799 40.15C49.9466 40.9833 47.8966 41.4 45.6299 41.4C42.8966 41.4 40.4632 40.8167 38.3299 39.65C36.1965 38.4833 34.5299 36.8167 33.3299 34.65C32.1299 32.4833 31.5299 29.95 31.5299 27.05C31.5299 24.15 32.1132 21.6167 33.2799 19.45C34.4799 17.2833 36.1465 15.6167 38.2799 14.45C40.4132 13.2833 42.8632 12.7 45.6299 12.7C48.3299 12.7 50.7299 13.2667 52.8299 14.4C54.9299 15.5333 56.5632 17.15 57.7299 19.25C58.9299 21.35 59.5299 23.8 59.5299 26.6ZM50.7799 24.35C50.7799 22.8833 50.2799 21.7167 49.2799 20.85C48.2799 19.9833 47.0299 19.55 45.5299 19.55C44.0966 19.55 42.8799 19.9667 41.8799 20.8C40.9132 21.6333 40.3132 22.8167 40.0799 24.35H50.7799ZM62.3404 27C62.3404 24.1333 62.8738 21.6167 63.9404 19.45C65.0404 17.2833 66.5238 15.6167 68.3904 14.45C70.2571 13.2833 72.3404 12.7 74.6404 12.7C76.6071 12.7 78.3238 13.1 79.7904 13.9C81.2904 14.7 82.4404 15.75 83.2404 17.05V13.1H91.7904V41H83.2404V37.05C82.4071 38.35 81.2404 39.4 79.7404 40.2C78.2738 41 76.5571 41.4 74.5904 41.4C72.3238 41.4 70.2571 40.8167 68.3904 39.65C66.5238 38.45 65.0404 36.7667 63.9404 34.6C62.8738 32.4 62.3404 29.8667 62.3404 27ZM83.2404 27.05C83.2404 24.9167 82.6404 23.2333 81.4404 22C80.2738 20.7667 78.8404 20.15 77.1404 20.15C75.4404 20.15 73.9904 20.7667 72.7904 22C71.6238 23.2 71.0404 24.8667 71.0404 27C71.0404 29.1333 71.6238 30.8333 72.7904 32.1C73.9904 33.3333 75.4404 33.95 77.1404 33.95C78.8404 33.95 80.2738 33.3333 81.4404 32.1C82.6404 30.8667 83.2404 29.1833 83.2404 27.05ZM113.526 33.75V41H109.176C106.076 41 103.659 40.25 101.926 38.75C100.193 37.2167 99.326 34.7333 99.326 31.3V20.2H95.926V13.1H99.326V6.3H107.876V13.1H113.476V20.2H107.876V31.4C107.876 32.2333 108.076 32.8333 108.476 33.2C108.876 33.5667 109.543 33.75 110.476 33.75H113.526ZM130.988 41.35C128.422 41.35 126.122 40.9333 124.088 40.1C122.055 39.2667 120.422 38.0333 119.188 36.4C117.988 34.7667 117.355 32.8 117.288 30.5H126.388C126.522 31.8 126.972 32.8 127.738 33.5C128.505 34.1667 129.505 34.5 130.738 34.5C132.005 34.5 133.005 34.2167 133.738 33.65C134.472 33.05 134.838 32.2333 134.838 31.2C134.838 30.3333 134.538 29.6167 133.938 29.05C133.372 28.4833 132.655 28.0167 131.788 27.65C130.955 27.2833 129.755 26.8667 128.188 26.4C125.922 25.7 124.072 25 122.638 24.3C121.205 23.6 119.972 22.5667 118.938 21.2C117.905 19.8333 117.388 18.05 117.388 15.85C117.388 12.5833 118.572 10.0333 120.938 8.2C123.305 6.33333 126.388 5.4 130.188 5.4C134.055 5.4 137.172 6.33333 139.538 8.2C141.905 10.0333 143.172 12.6 143.338 15.9H134.088C134.022 14.7667 133.605 13.8833 132.838 13.25C132.072 12.5833 131.088 12.25 129.888 12.25C128.855 12.25 128.022 12.5333 127.388 13.1C126.755 13.6333 126.438 14.4167 126.438 15.45C126.438 16.5833 126.972 17.4667 128.038 18.1C129.105 18.7333 130.772 19.4167 133.038 20.15C135.305 20.9167 137.138 21.65 138.538 22.35C139.972 23.05 141.205 24.0667 142.238 25.4C143.272 26.7333 143.788 28.45 143.788 30.55C143.788 32.55 143.272 34.3667 142.238 36C141.238 37.6333 139.772 38.9333 137.838 39.9C135.905 40.8667 133.622 41.35 130.988 41.35ZM157.6 17.05C158.434 15.75 159.584 14.7 161.05 13.9C162.517 13.1 164.234 12.7 166.2 12.7C168.5 12.7 170.584 13.2833 172.45 14.45C174.317 15.6167 175.784 17.2833 176.85 19.45C177.95 21.6167 178.5 24.1333 178.5 27C178.5 29.8667 177.95 32.4 176.85 34.6C175.784 36.7667 174.317 38.45 172.45 39.65C170.584 40.8167 168.5 41.4 166.2 41.4C164.267 41.4 162.55 41 161.05 40.2C159.584 39.4 158.434 38.3667 157.6 37.1V54.3H149.05V13.1H157.6V17.05ZM169.8 27C169.8 24.8667 169.2 23.2 168 22C166.834 20.7667 165.384 20.15 163.65 20.15C161.95 20.15 160.5 20.7667 159.3 22C158.134 23.2333 157.55 24.9167 157.55 27.05C157.55 29.1833 158.134 30.8667 159.3 32.1C160.5 33.3333 161.95 33.95 163.65 33.95C165.35 33.95 166.8 33.3333 168 32.1C169.2 30.8333 169.8 29.1333 169.8 27ZM187.286 10.2C185.786 10.2 184.552 9.76666 183.586 8.9C182.652 8 182.186 6.9 182.186 5.6C182.186 4.26667 182.652 3.16666 183.586 2.3C184.552 1.4 185.786 0.949997 187.286 0.949997C188.752 0.949997 189.952 1.4 190.886 2.3C191.852 3.16666 192.336 4.26667 192.336 5.6C192.336 6.9 191.852 8 190.886 8.9C189.952 9.76666 188.752 10.2 187.286 10.2ZM191.536 13.1V41H182.986V13.1H191.536ZM206.282 17.75C207.282 16.2167 208.532 15.0167 210.032 14.15C211.532 13.25 213.199 12.8 215.032 12.8V21.85H212.682C210.549 21.85 208.949 22.3167 207.882 23.25C206.815 24.15 206.282 25.75 206.282 28.05V41H197.732V13.1H206.282V17.75ZM245.419 26.6C245.419 27.4 245.369 28.2333 245.269 29.1H225.919C226.052 30.8333 226.602 32.1667 227.569 33.1C228.569 34 229.785 34.45 231.219 34.45C233.352 34.45 234.835 33.55 235.669 31.75H244.769C244.302 33.5833 243.452 35.2333 242.219 36.7C241.019 38.1667 239.502 39.3167 237.669 40.15C235.835 40.9833 233.785 41.4 231.519 41.4C228.785 41.4 226.352 40.8167 224.219 39.65C222.085 38.4833 220.419 36.8167 219.219 34.65C218.019 32.4833 217.419 29.95 217.419 27.05C217.419 24.15 218.002 21.6167 219.169 19.45C220.369 17.2833 222.035 15.6167 224.169 14.45C226.302 13.2833 228.752 12.7 231.519 12.7C234.219 12.7 236.619 13.2667 238.719 14.4C240.819 15.5333 242.452 17.15 243.619 19.25C244.819 21.35 245.419 23.8 245.419 26.6ZM236.669 24.35C236.669 22.8833 236.169 21.7167 235.169 20.85C234.169 19.9833 232.919 19.55 231.419 19.55C229.985 19.55 228.769 19.9667 227.769 20.8C226.802 21.6333 226.202 22.8167 225.969 24.35H236.669Z" fill="#07CF9E"/>
</g>
<defs>
<clipPath id="clip0_0_1">
<rect width="1440" height="4690" fill="white" transform="translate(-86 -4085)"/>
</clipPath>
</defs>
</svg>
