<svg width="218" height="18" viewBox="0 0 218 18" fill="none" xmlns="http://www.w3.org/2000/svg">
<rect width="218" height="18" fill="#1E1E1E"/>
<g clip-path="url(#clip0_0_1)">
<rect width="1440" height="4690" transform="translate(-608 -4650)" fill="#99FFE3"/>
<rect width="1440" height="739" transform="translate(-608 -699)" fill="#09131B"/>
<path d="M0.148938 7.416C0.148938 6.328 0.394271 5.352 0.884938 4.488C1.3756 3.61333 2.04227 2.93067 2.88494 2.44C3.73827 1.94933 4.68227 1.704 5.71694 1.704C6.93294 1.704 7.99427 1.99733 8.90094 2.584C9.8076 3.17067 10.4689 4.00267 10.8849 5.08H9.14094C8.8316 4.408 8.3836 3.89067 7.79694 3.528C7.22094 3.16533 6.5276 2.984 5.71694 2.984C4.93827 2.984 4.2396 3.16533 3.62094 3.528C3.00227 3.89067 2.51694 4.408 2.16494 5.08C1.81294 5.74133 1.63694 6.52 1.63694 7.416C1.63694 8.30133 1.81294 9.08 2.16494 9.752C2.51694 10.4133 3.00227 10.9253 3.62094 11.288C4.2396 11.6507 4.93827 11.832 5.71694 11.832C6.5276 11.832 7.22094 11.656 7.79694 11.304C8.3836 10.9413 8.8316 10.424 9.14094 9.752H10.8849C10.4689 10.8187 9.8076 11.6453 8.90094 12.232C7.99427 12.808 6.93294 13.096 5.71694 13.096C4.68227 13.096 3.73827 12.856 2.88494 12.376C2.04227 11.8853 1.3756 11.208 0.884938 10.344C0.394271 9.48 0.148938 8.504 0.148938 7.416ZM16.8763 13.144C16.055 13.144 15.3083 12.9573 14.6363 12.584C13.975 12.2107 13.4523 11.6827 13.0683 11C12.695 10.3067 12.5083 9.50667 12.5083 8.6C12.5083 7.704 12.7003 6.91467 13.0843 6.232C13.479 5.53867 14.0123 5.01067 14.6843 4.648C15.3563 4.27467 16.1083 4.088 16.9403 4.088C17.7723 4.088 18.5243 4.27467 19.1963 4.648C19.8683 5.01067 20.3963 5.53333 20.7803 6.216C21.175 6.89867 21.3723 7.69333 21.3723 8.6C21.3723 9.50667 21.1696 10.3067 20.7643 11C20.3696 11.6827 19.831 12.2107 19.1483 12.584C18.4656 12.9573 17.7083 13.144 16.8763 13.144ZM16.8763 11.864C17.399 11.864 17.8896 11.7413 18.3483 11.496C18.807 11.2507 19.175 10.8827 19.4523 10.392C19.7403 9.90133 19.8843 9.304 19.8843 8.6C19.8843 7.896 19.7456 7.29867 19.4683 6.808C19.191 6.31733 18.8283 5.95467 18.3803 5.72C17.9323 5.47467 17.447 5.352 16.9243 5.352C16.391 5.352 15.9003 5.47467 15.4523 5.72C15.015 5.95467 14.663 6.31733 14.3963 6.808C14.1296 7.29867 13.9963 7.896 13.9963 8.6C13.9963 9.31467 14.1243 9.91733 14.3803 10.408C14.647 10.8987 14.999 11.2667 15.4363 11.512C15.8736 11.7467 16.3536 11.864 16.8763 11.864ZM24.7427 5.848C25.0307 5.34667 25.4574 4.93067 26.0227 4.6C26.5987 4.25867 27.2654 4.088 28.0227 4.088C28.8014 4.088 29.5054 4.27467 30.1347 4.648C30.7747 5.02133 31.276 5.54933 31.6387 6.232C32.0014 6.904 32.1827 7.688 32.1827 8.584C32.1827 9.46933 32.0014 10.2587 31.6387 10.952C31.276 11.6453 30.7747 12.184 30.1347 12.568C29.5054 12.952 28.8014 13.144 28.0227 13.144C27.276 13.144 26.6147 12.9787 26.0387 12.648C25.4734 12.3067 25.0414 11.8853 24.7427 11.384V17.16H23.2867V4.232H24.7427V5.848ZM30.6947 8.584C30.6947 7.92267 30.5614 7.34667 30.2947 6.856C30.028 6.36533 29.6654 5.992 29.2067 5.736C28.7587 5.48 28.2627 5.352 27.7187 5.352C27.1854 5.352 26.6894 5.48533 26.2307 5.752C25.7827 6.008 25.42 6.38667 25.1427 6.888C24.876 7.37867 24.7427 7.94933 24.7427 8.6C24.7427 9.26133 24.876 9.84267 25.1427 10.344C25.42 10.8347 25.7827 11.2133 26.2307 11.48C26.6894 11.736 27.1854 11.864 27.7187 11.864C28.2627 11.864 28.7587 11.736 29.2067 11.48C29.6654 11.2133 30.028 10.8347 30.2947 10.344C30.5614 9.84267 30.6947 9.256 30.6947 8.584ZM41.6512 4.232L36.3712 17.128H34.8672L36.5952 12.904L33.0592 4.232H34.6752L37.4272 11.336L40.1472 4.232H41.6512ZM44.5708 5.656C44.8268 5.15467 45.1895 4.76533 45.6588 4.488C46.1388 4.21067 46.7201 4.072 47.4028 4.072V5.576H47.0188C45.3868 5.576 44.5708 6.46133 44.5708 8.232V13H43.1148V4.232H44.5708V5.656ZM49.8356 2.808C49.5582 2.808 49.3236 2.712 49.1316 2.52C48.9396 2.328 48.8436 2.09333 48.8436 1.816C48.8436 1.53867 48.9396 1.304 49.1316 1.112C49.3236 0.919999 49.5582 0.823999 49.8356 0.823999C50.1022 0.823999 50.3262 0.919999 50.5076 1.112C50.6996 1.304 50.7956 1.53867 50.7956 1.816C50.7956 2.09333 50.6996 2.328 50.5076 2.52C50.3262 2.712 50.1022 2.808 49.8356 2.808ZM50.5396 4.232V13H49.0836V4.232H50.5396ZM56.6371 4.088C57.3944 4.088 58.0557 4.25333 58.6211 4.584C59.1971 4.91467 59.6237 5.33067 59.9011 5.832V4.232H61.3731V13.192C61.3731 13.992 61.2024 14.7013 60.8611 15.32C60.5197 15.9493 60.0291 16.44 59.3891 16.792C58.7597 17.144 58.0237 17.32 57.1811 17.32C56.0291 17.32 55.0691 17.048 54.3011 16.504C53.5331 15.96 53.0797 15.2187 52.9411 14.28H54.3811C54.5411 14.8133 54.8717 15.24 55.3731 15.56C55.8744 15.8907 56.4771 16.056 57.1811 16.056C57.9811 16.056 58.6317 15.8053 59.1331 15.304C59.6451 14.8027 59.9011 14.0987 59.9011 13.192V11.352C59.6131 11.864 59.1864 12.2907 58.6211 12.632C58.0557 12.9733 57.3944 13.144 56.6371 13.144C55.8584 13.144 55.1491 12.952 54.5091 12.568C53.8797 12.184 53.3837 11.6453 53.0211 10.952C52.6584 10.2587 52.4771 9.46933 52.4771 8.584C52.4771 7.688 52.6584 6.904 53.0211 6.232C53.3837 5.54933 53.8797 5.02133 54.5091 4.648C55.1491 4.27467 55.8584 4.088 56.6371 4.088ZM59.9011 8.6C59.9011 7.93867 59.7677 7.36267 59.5011 6.872C59.2344 6.38133 58.8717 6.008 58.4131 5.752C57.9651 5.48533 57.4691 5.352 56.9251 5.352C56.3811 5.352 55.8851 5.48 55.4371 5.736C54.9891 5.992 54.6317 6.36533 54.3651 6.856C54.0984 7.34667 53.9651 7.92267 53.9651 8.584C53.9651 9.256 54.0984 9.84267 54.3651 10.344C54.6317 10.8347 54.9891 11.2133 55.4371 11.48C55.8851 11.736 56.3811 11.864 56.9251 11.864C57.4691 11.864 57.9651 11.736 58.4131 11.48C58.8717 11.2133 59.2344 10.8347 59.5011 10.344C59.7677 9.84267 59.9011 9.26133 59.9011 8.6ZM68.1856 4.072C68.8469 4.072 69.4442 4.216 69.9776 4.504C70.5109 4.78133 70.9269 5.20267 71.2256 5.768C71.5349 6.33333 71.6896 7.02133 71.6896 7.832V13H70.2496V8.04C70.2496 7.16533 70.0309 6.49867 69.5936 6.04C69.1562 5.57067 68.5589 5.336 67.8016 5.336C67.0336 5.336 66.4202 5.576 65.9616 6.056C65.5136 6.536 65.2896 7.23467 65.2896 8.152V13H63.8336V1.16H65.2896V5.48C65.5776 5.032 65.9722 4.68533 66.4736 4.44C66.9856 4.19467 67.5562 4.072 68.1856 4.072ZM75.8439 5.432V10.6C75.8439 11.0267 75.9346 11.3307 76.1159 11.512C76.2973 11.6827 76.6119 11.768 77.0599 11.768H78.1319V13H76.8199C76.0093 13 75.4013 12.8133 74.9959 12.44C74.5906 12.0667 74.3879 11.4533 74.3879 10.6V5.432H73.2519V4.232H74.3879V2.024H75.8439V4.232H78.1319V5.432H75.8439ZM100.808 11.832C102.163 10.744 103.224 9.85333 103.992 9.16C104.76 8.456 105.406 7.72533 105.928 6.968C106.462 6.2 106.728 5.448 106.728 4.712C106.728 4.01867 106.558 3.47467 106.216 3.08C105.886 2.67467 105.347 2.472 104.6 2.472C103.875 2.472 103.31 2.70133 102.904 3.16C102.51 3.608 102.296 4.21067 102.264 4.968H100.856C100.899 3.77333 101.262 2.85067 101.944 2.2C102.627 1.54933 103.507 1.224 104.584 1.224C105.683 1.224 106.552 1.528 107.192 2.136C107.843 2.744 108.168 3.58133 108.168 4.648C108.168 5.53333 107.902 6.39733 107.368 7.24C106.846 8.072 106.248 8.808 105.576 9.448C104.904 10.0773 104.046 10.8133 103 11.656H108.504V12.872H100.808V11.832ZM110.187 7.096C110.187 5.26133 110.486 3.832 111.083 2.808C111.681 1.77333 112.726 1.256 114.219 1.256C115.702 1.256 116.742 1.77333 117.339 2.808C117.937 3.832 118.235 5.26133 118.235 7.096C118.235 8.96267 117.937 10.4133 117.339 11.448C116.742 12.4827 115.702 13 114.219 13C112.726 13 111.681 12.4827 111.083 11.448C110.486 10.4133 110.187 8.96267 110.187 7.096ZM116.795 7.096C116.795 6.168 116.731 5.384 116.603 4.744C116.486 4.09333 116.235 3.57067 115.851 3.176C115.478 2.78133 114.934 2.584 114.219 2.584C113.494 2.584 112.939 2.78133 112.555 3.176C112.182 3.57067 111.931 4.09333 111.803 4.744C111.686 5.384 111.627 6.168 111.627 7.096C111.627 8.056 111.686 8.86133 111.803 9.512C111.931 10.1627 112.182 10.6853 112.555 11.08C112.939 11.4747 113.494 11.672 114.219 11.672C114.934 11.672 115.478 11.4747 115.851 11.08C116.235 10.6853 116.486 10.1627 116.603 9.512C116.731 8.86133 116.795 8.056 116.795 7.096ZM120.058 11.832C121.413 10.744 122.474 9.85333 123.242 9.16C124.01 8.456 124.656 7.72533 125.178 6.968C125.712 6.2 125.978 5.448 125.978 4.712C125.978 4.01867 125.808 3.47467 125.466 3.08C125.136 2.67467 124.597 2.472 123.85 2.472C123.125 2.472 122.56 2.70133 122.154 3.16C121.76 3.608 121.546 4.21067 121.514 4.968H120.106C120.149 3.77333 120.512 2.85067 121.194 2.2C121.877 1.54933 122.757 1.224 123.834 1.224C124.933 1.224 125.802 1.528 126.442 2.136C127.093 2.744 127.418 3.58133 127.418 4.648C127.418 5.53333 127.152 6.39733 126.618 7.24C126.096 8.072 125.498 8.808 124.826 9.448C124.154 10.0773 123.296 10.8133 122.25 11.656H127.754V12.872H120.058V11.832ZM129.405 4.344C129.48 3.36267 129.859 2.59467 130.541 2.04C131.224 1.48533 132.109 1.208 133.197 1.208C133.923 1.208 134.547 1.34133 135.069 1.608C135.603 1.864 136.003 2.216 136.269 2.664C136.547 3.112 136.685 3.61867 136.685 4.184C136.685 4.84533 136.493 5.416 136.109 5.896C135.736 6.376 135.245 6.68533 134.637 6.824V6.904C135.331 7.07467 135.88 7.41067 136.285 7.912C136.691 8.41333 136.893 9.06933 136.893 9.88C136.893 10.488 136.755 11.0373 136.477 11.528C136.2 12.008 135.784 12.3867 135.229 12.664C134.675 12.9413 134.008 13.08 133.229 13.08C132.099 13.08 131.171 12.7867 130.445 12.2C129.72 11.6027 129.315 10.76 129.229 9.672H130.637C130.712 10.312 130.973 10.8347 131.421 11.24C131.869 11.6453 132.467 11.848 133.213 11.848C133.96 11.848 134.525 11.656 134.909 11.272C135.304 10.8773 135.501 10.3707 135.501 9.752C135.501 8.952 135.235 8.376 134.701 8.024C134.168 7.672 133.363 7.496 132.285 7.496H131.917V6.28H132.301C133.283 6.26933 134.024 6.10933 134.525 5.8C135.027 5.48 135.277 4.98933 135.277 4.328C135.277 3.76267 135.091 3.30933 134.717 2.968C134.355 2.62667 133.832 2.456 133.149 2.456C132.488 2.456 131.955 2.62667 131.549 2.968C131.144 3.30933 130.904 3.768 130.829 4.344H129.405ZM148.949 7.256C149.354 7.32 149.722 7.48533 150.053 7.752C150.394 8.01867 150.661 8.34933 150.853 8.744C151.055 9.13867 151.157 9.56 151.157 10.008C151.157 10.5733 151.013 11.0853 150.725 11.544C150.437 11.992 150.015 12.3493 149.461 12.616C148.917 12.872 148.271 13 147.525 13H143.365V1.848H147.365C148.122 1.848 148.767 1.976 149.301 2.232C149.834 2.47733 150.234 2.81333 150.501 3.24C150.767 3.66667 150.901 4.14667 150.901 4.68C150.901 5.34133 150.719 5.89067 150.357 6.328C150.005 6.75467 149.535 7.064 148.949 7.256ZM144.821 6.664H147.269C147.951 6.664 148.479 6.504 148.853 6.184C149.226 5.864 149.413 5.42133 149.413 4.856C149.413 4.29067 149.226 3.848 148.853 3.528C148.479 3.208 147.941 3.048 147.237 3.048H144.821V6.664ZM147.397 11.8C148.122 11.8 148.687 11.6293 149.093 11.288C149.498 10.9467 149.701 10.472 149.701 9.864C149.701 9.24533 149.487 8.76 149.061 8.408C148.634 8.04533 148.063 7.864 147.349 7.864H144.821V11.8H147.397ZM161.177 8.28C161.177 8.55733 161.161 8.85067 161.129 9.16H154.121C154.175 10.024 154.468 10.7013 155.001 11.192C155.545 11.672 156.201 11.912 156.969 11.912C157.599 11.912 158.121 11.768 158.537 11.48C158.964 11.1813 159.263 10.7867 159.433 10.296H161.001C160.767 11.1387 160.297 11.8267 159.593 12.36C158.889 12.8827 158.015 13.144 156.969 13.144C156.137 13.144 155.391 12.9573 154.729 12.584C154.079 12.2107 153.567 11.6827 153.193 11C152.82 10.3067 152.633 9.50667 152.633 8.6C152.633 7.69333 152.815 6.89867 153.177 6.216C153.54 5.53333 154.047 5.01067 154.697 4.648C155.359 4.27467 156.116 4.088 156.969 4.088C157.801 4.088 158.537 4.26933 159.177 4.632C159.817 4.99467 160.308 5.496 160.649 6.136C161.001 6.76533 161.177 7.48 161.177 8.28ZM159.673 7.976C159.673 7.42133 159.551 6.94667 159.305 6.552C159.06 6.14667 158.724 5.84267 158.297 5.64C157.881 5.42667 157.417 5.32 156.905 5.32C156.169 5.32 155.54 5.55467 155.017 6.024C154.505 6.49333 154.212 7.144 154.137 7.976H159.673ZM162.555 8.584C162.555 7.688 162.737 6.904 163.099 6.232C163.462 5.54933 163.958 5.02133 164.587 4.648C165.227 4.27467 165.937 4.088 166.715 4.088C167.483 4.088 168.15 4.25333 168.715 4.584C169.281 4.91467 169.702 5.33067 169.979 5.832V4.232H171.451V13H169.979V11.368C169.691 11.88 169.259 12.3067 168.683 12.648C168.118 12.9787 167.457 13.144 166.699 13.144C165.921 13.144 165.217 12.952 164.587 12.568C163.958 12.184 163.462 11.6453 163.099 10.952C162.737 10.2587 162.555 9.46933 162.555 8.584ZM169.979 8.6C169.979 7.93867 169.846 7.36267 169.579 6.872C169.313 6.38133 168.95 6.008 168.491 5.752C168.043 5.48533 167.547 5.352 167.003 5.352C166.459 5.352 165.963 5.48 165.515 5.736C165.067 5.992 164.71 6.36533 164.443 6.856C164.177 7.34667 164.043 7.92267 164.043 8.584C164.043 9.256 164.177 9.84267 164.443 10.344C164.71 10.8347 165.067 11.2133 165.515 11.48C165.963 11.736 166.459 11.864 167.003 11.864C167.547 11.864 168.043 11.736 168.491 11.48C168.95 11.2133 169.313 10.8347 169.579 10.344C169.846 9.84267 169.979 9.26133 169.979 8.6ZM175.688 5.432V10.6C175.688 11.0267 175.778 11.3307 175.96 11.512C176.141 11.6827 176.456 11.768 176.904 11.768H177.976V13H176.664C175.853 13 175.245 12.8133 174.84 12.44C174.434 12.0667 174.232 11.4533 174.232 10.6V5.432H173.096V4.232H174.232V2.024H175.688V4.232H177.976V5.432H175.688ZM183.276 13.112C182.54 13.112 181.878 12.984 181.292 12.728C180.716 12.4613 180.262 12.0987 179.932 11.64C179.601 11.1707 179.43 10.632 179.42 10.024H180.972C181.025 10.5467 181.238 10.9893 181.612 11.352C181.996 11.704 182.55 11.88 183.276 11.88C183.969 11.88 184.513 11.7093 184.908 11.368C185.313 11.016 185.516 10.568 185.516 10.024C185.516 9.59733 185.398 9.25067 185.164 8.984C184.929 8.71733 184.636 8.51467 184.284 8.376C183.932 8.23733 183.457 8.088 182.86 7.928C182.124 7.736 181.532 7.544 181.084 7.352C180.646 7.16 180.268 6.86133 179.948 6.456C179.638 6.04 179.484 5.48533 179.484 4.792C179.484 4.184 179.638 3.64533 179.948 3.176C180.257 2.70667 180.689 2.344 181.244 2.088C181.809 1.832 182.454 1.704 183.18 1.704C184.225 1.704 185.078 1.96533 185.74 2.488C186.412 3.01067 186.79 3.704 186.876 4.568H185.276C185.222 4.14133 184.998 3.768 184.604 3.448C184.209 3.11733 183.686 2.952 183.036 2.952C182.428 2.952 181.932 3.112 181.548 3.432C181.164 3.74133 180.972 4.17867 180.972 4.744C180.972 5.14933 181.084 5.48 181.308 5.736C181.542 5.992 181.825 6.18933 182.156 6.328C182.497 6.456 182.972 6.60533 183.58 6.776C184.316 6.97867 184.908 7.18133 185.356 7.384C185.804 7.576 186.188 7.88 186.508 8.296C186.828 8.70133 186.988 9.256 186.988 9.96C186.988 10.504 186.844 11.016 186.556 11.496C186.268 11.976 185.841 12.3653 185.276 12.664C184.71 12.9627 184.044 13.112 183.276 13.112ZM190.586 5.848C190.874 5.34667 191.301 4.93067 191.866 4.6C192.442 4.25867 193.109 4.088 193.866 4.088C194.645 4.088 195.349 4.27467 195.978 4.648C196.618 5.02133 197.12 5.54933 197.482 6.232C197.845 6.904 198.026 7.688 198.026 8.584C198.026 9.46933 197.845 10.2587 197.482 10.952C197.12 11.6453 196.618 12.184 195.978 12.568C195.349 12.952 194.645 13.144 193.866 13.144C193.12 13.144 192.458 12.9787 191.882 12.648C191.317 12.3067 190.885 11.8853 190.586 11.384V17.16H189.13V4.232H190.586V5.848ZM196.538 8.584C196.538 7.92267 196.405 7.34667 196.138 6.856C195.872 6.36533 195.509 5.992 195.05 5.736C194.602 5.48 194.106 5.352 193.562 5.352C193.029 5.352 192.533 5.48533 192.074 5.752C191.626 6.008 191.264 6.38667 190.986 6.888C190.72 7.37867 190.586 7.94933 190.586 8.6C190.586 9.26133 190.72 9.84267 190.986 10.344C191.264 10.8347 191.626 11.2133 192.074 11.48C192.533 11.736 193.029 11.864 193.562 11.864C194.106 11.864 194.602 11.736 195.05 11.48C195.509 11.2133 195.872 10.8347 196.138 10.344C196.405 9.84267 196.538 9.256 196.538 8.584ZM200.695 2.808C200.418 2.808 200.183 2.712 199.991 2.52C199.799 2.328 199.703 2.09333 199.703 1.816C199.703 1.53867 199.799 1.304 199.991 1.112C200.183 0.919999 200.418 0.823999 200.695 0.823999C200.962 0.823999 201.186 0.919999 201.367 1.112C201.559 1.304 201.655 1.53867 201.655 1.816C201.655 2.09333 201.559 2.328 201.367 2.52C201.186 2.712 200.962 2.808 200.695 2.808ZM201.399 4.232V13H199.943V4.232H201.399ZM205.336 5.656C205.592 5.15467 205.955 4.76533 206.424 4.488C206.904 4.21067 207.486 4.072 208.168 4.072V5.576H207.784C206.152 5.576 205.336 6.46133 205.336 8.232V13H203.88V4.232H205.336V5.656ZM217.849 8.28C217.849 8.55733 217.833 8.85067 217.801 9.16H210.793C210.847 10.024 211.14 10.7013 211.673 11.192C212.217 11.672 212.873 11.912 213.641 11.912C214.271 11.912 214.793 11.768 215.209 11.48C215.636 11.1813 215.935 10.7867 216.105 10.296H217.673C217.439 11.1387 216.969 11.8267 216.265 12.36C215.561 12.8827 214.687 13.144 213.641 13.144C212.809 13.144 212.063 12.9573 211.401 12.584C210.751 12.2107 210.239 11.6827 209.865 11C209.492 10.3067 209.305 9.50667 209.305 8.6C209.305 7.69333 209.487 6.89867 209.849 6.216C210.212 5.53333 210.719 5.01067 211.369 4.648C212.031 4.27467 212.788 4.088 213.641 4.088C214.473 4.088 215.209 4.26933 215.849 4.632C216.489 4.99467 216.98 5.496 217.321 6.136C217.673 6.76533 217.849 7.48 217.849 8.28ZM216.345 7.976C216.345 7.42133 216.223 6.94667 215.977 6.552C215.732 6.14667 215.396 5.84267 214.969 5.64C214.553 5.42667 214.089 5.32 213.577 5.32C212.841 5.32 212.212 5.55467 211.689 6.024C211.177 6.49333 210.884 7.144 210.809 7.976H216.345Z" fill="#99FFE3"/>
<path d="M89.04 7.44138C89.065 7.27596 89.12 7.13058 89.19 7.01028C89.34 6.72956 89.595 6.58418 89.94 6.57917C90.165 6.57917 90.37 6.67943 90.515 6.8248C90.655 6.9802 90.75 7.19575 90.75 7.4113H91.65C91.64 7.1757 91.595 6.96015 91.5 6.75963C91.425 6.56915 91.31 6.39871 91.16 6.25835C90.435 5.58663 89.09 5.68187 88.475 6.44382C87.83 7.28097 87.815 8.74472 88.47 9.58187C89.075 10.3288 90.4 10.434 91.12 9.76734C91.275 9.64202 91.4 9.48662 91.5 9.30616C91.58 9.1257 91.635 8.93521 91.64 8.72968H90.75C90.75 8.83495 90.715 8.9302 90.67 9.01541C90.625 9.11066 90.565 9.18585 90.5 9.25102C90.335 9.38135 90.14 9.45153 89.93 9.45153C89.75 9.44652 89.6 9.41143 89.485 9.33624C89.3554 9.26316 89.2521 9.15087 89.19 9.01541C88.94 8.56426 88.98 7.93765 89.04 7.44138ZM90 3C87.25 3 85 5.25578 85 8.01285C85.265 14.6649 94.75 14.6599 95 8.01285C95 5.25578 92.75 3 90 3ZM90 12.0231C87.795 12.0231 86 10.2235 86 8.01285C86.22 2.69422 93.78 2.69422 94 8.01285C94 10.2235 92.205 12.0231 90 12.0231Z" fill="#99FFE3"/>
</g>
<defs>
<clipPath id="clip0_0_1">
<rect width="1440" height="4690" fill="white" transform="translate(-608 -4650)"/>
</clipPath>
</defs>
</svg>
